<?xml version="1.0" standalone="no"?>
<!DOCTYPE svg PUBLIC "-//W3C//DTD SVG 20010904//EN"
 "http://www.w3.org/TR/2001/REC-SVG-20010904/DTD/svg10.dtd">
<svg version="1.0" xmlns="http://www.w3.org/2000/svg" viewBox="0 0 397.000000 282.000000"
 preserveAspectRatio="xMidYMid meet">

<g transform="translate(0.000000,282.000000) scale(0.100000,-0.100000)"
fill="#DDDDDD" stroke="none">
<path d="M1250 2725 c-8 -2 -49 -9 -90 -15 -107 -17 -250 -65 -360 -120 -354
-178 -611 -507 -701 -900 -26 -111 -36 -348 -20 -461 82 -577 505 -1026 1067
-1133 414 -78 823 39 1149 327 l40 36 -189 190 -189 190 -55 -49 c-30 -27 -96
-70 -146 -95 -127 -63 -224 -87 -361 -87 -138 0 -234 24 -365 89 -79 39 -111
63 -186 138 -106 105 -159 189 -205 325 -31 89 -33 104 -33 235 -1 164 12 223
79 360 100 205 290 360 515 421 90 25 300 25 390 0 99 -27 217 -87 299 -151
l73 -58 187 187 186 187 -54 51 c-158 146 -384 261 -616 313 -64 14 -376 30
-415 20z m270 -225 c157 -20 307 -71 444 -152 l68 -40 -30 -30 -30 -30 -69 41
c-85 50 -203 94 -313 117 -126 25 -355 16 -473 -20 -243 -73 -440 -217 -571
-418 -97 -149 -147 -291 -165 -465 -20 -191 13 -373 99 -548 81 -168 198 -302
351 -404 159 -107 320 -159 519 -168 201 -9 385 34 544 127 38 22 71 40 75 40
4 0 18 -12 32 -26 l24 -25 -25 -19 c-80 -62 -251 -132 -392 -161 -86 -17 -126
-20 -248 -16 -170 5 -289 32 -424 96 -495 231 -750 789 -600 1308 149 516 659
857 1184 793z"/>
<path d="M2685 2281 c-57 -26 -470 -447 -519 -528 -59 -99 -87 -192 -93 -314
-7 -133 12 -226 69 -342 39 -77 59 -100 327 -370 l285 -287 -184 -185 -185
-185 100 0 100 0 183 183 182 182 -65 65 -65 64 32 33 32 33 196 -194 c107
-107 209 -201 227 -210 27 -14 76 -16 320 -16 l288 0 -268 268 -267 267 0 183
c0 161 -2 187 -19 220 -11 20 -137 154 -280 297 -227 226 -261 264 -261 290 0
25 15 46 83 113 l82 82 234 0 233 0 -7 28 c-10 41 -52 100 -83 116 -15 8 -146
62 -292 120 -284 114 -313 120 -385 87z m372 -1083 l193 -193 0 -65 0 -65
-181 180 c-99 99 -187 193 -195 208 -18 33 -31 127 -18 127 5 0 95 -87 201
-192z"/>
<path d="M2872 227 c-78 -78 -142 -146 -142 -150 0 -4 44 -7 98 -7 l97 0 93
93 c50 51 92 97 92 103 0 5 -21 31 -48 57 l-47 47 -143 -143z"/>
</g>
</svg>
